<svg width="720" height="716" viewBox="0 0 720 716" fill="none" xmlns="http://www.w3.org/2000/svg">
<rect x="4.5" y="4.5" width="711" height="707" rx="185.5" fill="#F0EBE0"/>
<rect x="4.5" y="4.5" width="711" height="707" rx="185.5" stroke="#E5E0D8" stroke-width="9"/>
<path opacity="0.98" fill-rule="evenodd" clip-rule="evenodd" d="M541.717 525.824L540.093 525.011L538.469 527.448L535.22 528.26L531.972 531.509V533.133L536.844 530.696L538.469 527.448H540.905L541.717 525.824ZM552.275 514.454L545.778 520.951L542.529 522.575L543.342 525.011L545.778 525.824L544.154 528.26L541.717 529.072L542.529 530.696L550.651 523.387L549.839 522.575L545.778 525.824L544.966 524.199L546.59 520.139L548.214 521.763L551.463 519.326L553.087 522.575L554.712 521.763V519.326L552.275 518.514V514.454ZM246.097 483.592L238.787 490.089L241.224 490.901L246.097 483.592ZM67.425 462.476L65.8008 471.41H67.425V462.476ZM251.782 462.476H250.157L246.097 466.537L238.787 470.598L235.539 469.786L232.29 473.846L220.108 481.156L219.296 479.531L237.163 465.725L238.787 462.476L240.412 463.288V460.852L238.787 460.04L234.727 464.101H231.478L230.666 465.725L208.738 478.719L207.114 477.095L184.374 489.277L176.252 491.713H171.38L164.882 486.028L163.258 487.653L160.009 482.78L159.197 486.028H155.949L155.137 488.465V503.083L153.512 503.896L154.324 512.017L156.761 514.454V517.702L159.197 519.326V522.575L161.634 524.199L162.446 527.448L164.882 529.884H167.319L173.004 538.006L174.628 537.194L177.877 539.63H181.937L185.186 543.691L195.744 542.879V540.442L197.368 538.818H200.617V536.381L213.611 525.824L211.987 524.199L213.611 521.763L223.357 513.641L222.545 512.017L224.981 508.769H226.605V506.332L224.981 504.708L230.666 501.459V499.835L238.787 492.526L236.351 490.901L218.484 504.708L216.86 503.896L218.484 501.459L227.417 495.774L237.163 486.841L238.787 483.592L232.29 487.653L227.417 492.526L225.793 490.901L229.854 486.028L240.412 477.907L238.787 476.283L241.224 474.658L246.097 467.349L248.533 468.973L246.909 467.349L249.345 464.913L251.782 465.725V462.476ZM294.825 452.731V455.167L300.51 461.664L295.638 462.476L300.51 465.725L305.383 470.598V472.222L308.632 473.846L321.626 488.465L327.311 499.023L323.25 503.083L315.941 506.332L314.317 508.769H310.256L308.632 510.393L310.256 512.017L307.008 514.454L310.256 516.078L319.19 513.641L320.002 515.266L317.565 516.89L324.063 516.078L325.687 517.702L320.814 519.326H326.499L328.123 520.951L321.626 524.199L323.25 523.387L334.62 525.011L336.245 527.448H341.93L342.742 528.26L341.118 529.884L347.615 531.509L352.488 536.381L353.3 539.63L359.797 546.127L372.791 547.751L375.228 550.188L381.725 551L392.283 546.127L396.343 547.751L399.592 545.315L402.028 540.442L401.216 538.006L403.653 535.569L402.028 533.133L406.089 531.509L406.901 524.199L405.277 522.575V516.078L402.841 513.641V510.393L397.156 501.459L397.968 499.023L390.658 489.277L389.034 490.089L386.598 486.028H384.161L380.101 480.343H378.476L367.106 471.41L350.051 462.476L346.803 461.664L345.991 463.288L342.742 460.852H338.681L331.372 457.603L319.19 455.167L317.565 455.979L309.444 454.355L307.008 452.731H294.825ZM310.256 511.205L312.693 509.581L318.378 510.393L312.693 512.829L310.256 511.205ZM185.998 386.135L187.622 387.759L186.81 390.195L190.871 393.444L189.247 395.88L202.241 407.25L212.799 420.245L214.423 427.554L213.611 434.863L211.175 438.924L220.92 438.112L222.545 439.736L219.296 442.173L228.23 442.985L233.915 439.736L237.975 441.361L243.66 438.924L245.285 431.615L242.848 430.803L246.909 428.366L247.721 425.118L252.594 420.245L251.782 414.56L252.594 410.499L254.218 409.687L253.406 406.438L255.843 401.565L252.594 404.814L250.97 403.19L255.03 398.317L254.218 396.693L256.655 393.444L253.406 395.068L252.594 398.317H246.909L241.224 395.068L242.036 392.632L240.412 391.008L230.666 386.135H225.793L223.357 384.51L205.49 383.698L198.18 385.323L188.435 384.51L187.622 386.947L185.998 386.135ZM138.894 381.262L132.397 389.383L131.584 392.632L127.524 395.88L128.336 399.129L125.087 404.002L121.027 406.438V411.311H118.59L117.778 413.748L115.342 414.56L116.154 416.996H113.717L114.529 419.433L111.281 420.245L112.905 421.869L108.844 427.554L107.22 426.742V430.803L105.596 432.427L103.972 431.615L91.7894 449.482L87.7287 450.294L73.9222 470.598L67.425 476.283L65.8008 473.034L64.1765 474.658L63.3643 479.531L61.74 477.907L62.5522 471.41H59.3036L62.5522 468.161L63.3643 460.852L61.74 461.664L60.9279 464.913L59.3036 461.664L55.2429 477.907L47.1214 486.028L46.3093 495.774L51.1822 502.271L50.37 505.52L54.4307 513.641L58.4915 515.266L60.1157 518.514L63.3643 520.139L64.1765 522.575L68.2372 525.011V528.26L70.6736 530.696V532.321L74.7343 533.133L81.2315 538.818L90.1651 538.006L91.7894 540.442L94.2258 541.254L98.2865 540.442L100.723 538.818L103.159 533.945L106.408 533.133L109.657 528.26L110.469 522.575L108.844 518.514L113.717 512.829L115.342 508.769L116.966 499.835H115.342L114.529 498.211L116.966 492.526L121.027 488.465L121.839 483.592L120.214 484.404L119.402 482.78L121.027 479.531L123.463 478.719L122.651 473.034L125.899 467.349L129.148 456.791L128.336 455.979L127.524 457.603L126.712 455.167L134.021 435.676L129.148 442.173V446.233L125.899 450.294L124.275 448.67L126.712 444.609V442.173L130.772 437.3L131.584 431.615L133.209 430.803L132.397 425.93L134.021 424.306L137.269 414.56L135.645 412.935L138.082 412.123L134.021 409.687L135.645 406.438L138.894 409.687L135.645 405.626H140.518V399.941L142.142 395.068L140.518 395.88L139.706 398.317H137.269L129.148 415.372L124.275 421.869V418.62L122.651 419.433L121.839 417.808L125.087 411.311L127.524 408.875L129.148 409.687L127.524 408.063V405.626L129.96 404.814V399.129L133.209 398.317L135.645 395.068L138.082 389.383L136.457 386.135L138.894 381.262ZM116.966 427.554L117.778 429.991L112.905 438.112L112.093 436.488L116.966 427.554ZM121.839 418.62V422.681L117.778 428.366L116.966 426.742L121.839 418.62ZM146.203 367.455L139.706 378.013L141.33 381.262L142.142 379.638L140.518 378.825L142.954 373.953L144.579 373.14L146.203 367.455ZM361.421 356.085L356.548 354.461L352.488 347.964L345.178 346.34L340.306 343.091H332.184L329.748 344.715H323.25L315.941 347.152V348.776L312.693 350.4V353.649L309.444 356.898H313.505L317.565 360.958L314.317 373.14L310.256 379.638V382.074L305.383 391.82L285.892 421.869L281.019 426.742L279.395 430.803L284.268 426.742L285.892 427.554L279.395 433.239V434.863L276.146 438.112L280.207 434.863L282.643 435.676V433.239H285.892L287.516 429.991H289.14L291.577 426.742L293.201 427.554L294.013 425.93H295.638L298.074 422.681H299.698L300.51 424.306L290.765 434.051L289.14 432.427L290.765 434.863L298.074 429.178L299.698 430.803L302.135 429.991L302.947 427.554L307.008 425.93L309.444 422.681L311.88 425.118L319.19 421.057H322.438L341.118 404.002L342.742 405.626L355.736 395.068L364.67 390.195L372.791 389.383L371.979 387.759L375.228 382.886L372.791 378.013L373.603 372.328L372.791 370.704L367.918 368.268V364.207L364.67 362.583V360.146L361.421 356.085ZM39 308.981L39.8121 314.666L41.4364 317.102L39.8121 319.539L42.2486 324.412L56.8672 339.843L64.1765 349.588L65.8008 353.649L71.4858 359.334L73.1101 376.389L71.4858 378.013L72.2979 384.51L70.6736 390.195H73.1101L74.7343 386.947L73.1101 385.323L76.3586 381.262L77.9829 376.389H79.6072V382.074L86.1044 369.892L87.7287 370.704V373.14L90.1651 368.268L91.7894 369.08L95.038 366.643L99.9108 367.455L103.972 363.395L112.905 364.207L115.342 362.583V359.334L116.966 358.522L116.154 355.273L118.59 352.837L117.778 352.025L116.154 353.649L115.342 352.025L117.778 348.776L121.027 347.964V340.655L116.966 336.594L116.154 333.345L111.281 330.909L108.844 328.472L109.657 326.848L101.535 320.351L99.9108 321.163L96.6622 317.915L92.6015 317.102L87.7287 313.854L72.2979 309.793H53.6186L42.2486 306.545L41.4364 308.981H39ZM575.827 239.137H570.954L569.33 241.573L562.833 242.385L561.209 244.009H556.336L549.027 248.882V251.319L540.905 257.816L528.723 264.313H526.287L507.607 272.435L501.922 274.059H493.801L488.116 269.998L479.994 268.374V271.622L478.37 272.435L480.806 282.18L479.994 287.865L484.867 295.987L486.491 296.799V298.423L493.801 305.732L497.049 306.545L503.546 311.417H506.795L510.856 313.854L516.541 313.042L528.723 303.296L547.402 291.926L548.214 292.738L545.778 300.047L529.535 335.782V338.218L510.856 373.14L507.607 376.389L501.11 378.013L499.486 380.45L487.304 382.074L471.061 386.947L465.376 386.135L467 387.759L466.188 388.571L461.315 387.759L442.636 396.693L437.763 399.941L423.144 415.372L419.896 421.057L417.459 429.178V440.548L419.083 443.797L417.459 444.609L415.835 442.173L416.647 451.918L418.271 452.731V455.979H421.52L419.896 459.228L423.956 462.476V465.725L427.205 471.41V473.846L431.266 477.095L441.824 478.719L445.884 481.156L446.696 484.404L449.133 483.592L449.945 485.216L456.442 484.404L459.691 481.156L467.812 479.531L472.685 473.034L477.558 472.222L491.364 458.416H493.801L496.237 455.979L500.298 448.67L504.359 444.609V440.548L517.353 421.057L522.226 410.499L525.474 409.687L529.535 405.626L550.651 404.814L553.899 407.25L566.894 408.063L570.142 409.687L580.7 411.311V413.748L582.324 412.123H584.761L585.573 412.935L583.137 414.56L587.197 412.935L588.009 413.748L586.385 415.372L592.882 416.996L596.943 421.057V423.493L588.009 444.609L571.767 472.222L569.33 473.034L565.269 480.343L553.087 494.962L529.535 518.514L530.347 520.951L534.408 518.514L536.032 520.139L528.723 525.824L525.474 522.575L523.038 523.387L522.226 526.636L519.789 529.072L520.602 530.696L523.85 528.26L525.474 529.072V530.696H527.911L536.844 525.011L535.22 523.387L536.844 521.763H540.093L541.717 519.326H543.342L557.148 507.956L558.772 508.769L556.336 511.205V517.702L558.772 516.078L557.148 514.454L560.397 511.205L562.021 512.829L566.082 511.205L571.767 504.708L574.203 505.52V503.083L575.827 501.459L578.264 503.896L581.512 501.459V505.52L586.385 500.647V499.023L584.761 499.835L583.949 498.211L589.634 492.526L591.258 494.15L590.446 491.713L592.07 490.089L593.695 491.713L592.882 489.277H596.131L607.501 475.471L609.937 474.658L629.429 441.361L631.053 442.985L633.49 438.924H636.738L649.732 443.797L665.163 455.167H666.787L665.163 452.731L666.787 450.294H672.472L674.909 452.731H677.345L683.843 456.791V455.167L685.467 454.355V448.67L681.406 444.609L682.218 438.112L683.843 437.3L686.279 440.548L690.34 438.924L688.715 437.3L683.843 436.488V431.615L687.091 429.991L677.345 421.057L675.721 421.869L674.909 419.433L668.412 414.56L665.975 415.372L665.163 413.748L651.357 405.626L648.108 402.378L648.92 396.693L647.296 395.88L649.732 394.256L650.545 384.51L652.169 380.45L651.357 378.825L653.793 373.14L655.417 372.328V365.019L652.981 360.958V357.71L646.484 348.776H644.047L642.423 345.528L635.114 339.843L623.744 338.218L618.059 341.467H613.186L608.313 346.34L605.065 355.273L608.313 354.461L610.75 356.085L611.562 370.704L609.937 375.577V382.886L607.501 386.947L588.822 384.51L587.197 382.886L582.324 383.698L562.021 380.45L559.584 378.013L544.966 376.389L542.529 374.765L548.214 366.643L549.839 360.958L556.336 352.837L554.712 351.213L557.148 350.4V347.964L562.021 343.903L561.209 340.655L564.457 339.843L569.33 331.721L571.767 328.472L573.391 329.285L590.446 302.484L601.004 293.55L607.501 292.738L611.562 283.805L610.75 278.932L608.313 274.871L609.125 267.562L605.877 261.877L601.816 259.44L600.192 255.38L593.695 248.07L585.573 244.009H583.137L575.827 239.137ZM539.281 511.205L540.093 512.017L537.657 513.641L539.281 515.266L536.844 518.514L535.22 515.266L536.032 512.829L539.281 511.205ZM593.695 481.968V485.216L584.761 494.15L583.949 493.338L593.695 481.968ZM432.078 408.063L432.89 409.687L425.581 416.996L424.769 415.372L432.078 408.063ZM491.364 410.499L484.867 420.245L483.243 419.433L474.309 432.427L461.315 445.421L457.254 447.858L452.381 448.67L446.696 444.609V440.548L445.072 437.3L451.569 425.118L461.315 416.996L472.685 411.311L489.74 406.438L491.364 410.499ZM647.296 395.88L648.108 398.317L646.484 400.753L645.672 397.505L647.296 395.88ZM541.717 371.516L542.529 373.14L540.093 376.389L539.281 374.765L541.717 371.516ZM544.154 367.455L544.966 369.08L542.529 372.328L541.717 370.704L544.154 367.455ZM78.7951 189.596L77.9829 195.281L75.5465 196.093L73.1101 198.529V200.154L82.0436 219.645L84.4801 221.269L85.2922 224.518L95.038 235.076L101.535 247.258L99.9108 253.755L93.4137 264.313L92.6015 268.374L87.7287 273.247L86.9165 275.683H88.5408L98.2865 267.562L100.723 268.374L103.972 265.937L105.596 266.75L104.784 268.374L108.032 266.75L112.093 267.562L120.214 265.937L121.839 267.562H125.899L129.148 269.998L130.772 269.186L134.021 270.81H136.457L135.645 269.186L138.894 267.562H144.579L146.203 269.998L150.264 270.81L151.888 267.562L156.761 265.125L155.949 261.065L157.573 260.252V257.004L155.949 253.755L160.009 252.943L160.822 251.319L164.882 252.131V243.197L162.446 237.512L160.009 236.7L160.822 233.452L159.197 231.827V229.391H156.761L151.888 224.518L153.512 222.082L151.076 218.021L138.082 207.463L123.463 200.154L121.839 200.966L118.59 197.717H115.342L112.905 196.093L111.281 196.905L97.4744 191.22L92.6015 192.844L83.6679 189.596H78.7951ZM274.522 127.873L269.649 128.685L263.964 124.624L252.594 123L251.782 127.061L246.097 130.309L246.909 139.243L254.218 150.613L256.655 180.662L255.843 187.972L258.279 198.529L257.467 219.645L258.279 223.706L259.903 224.518V227.767L258.279 228.579V244.009L259.903 245.634L259.091 247.258L260.715 249.694H258.279V252.131L259.903 252.943V260.252L261.528 261.877V264.313L259.903 265.125L258.279 262.689L259.091 274.059L256.655 282.18L258.279 300.86L254.218 307.357L246.909 308.981L244.472 309.793L243.66 308.169L239.6 309.793H233.915V303.296L234.727 302.484L237.163 304.92L236.351 303.296L237.975 300.86L237.163 295.987L238.787 291.114L237.975 289.49L239.6 279.744V269.186L240.412 265.937L243.66 262.689V258.628L241.224 251.319L236.351 245.634V243.197L229.042 237.512H224.981L222.545 234.264L219.296 232.639L205.49 230.203L202.241 227.767L197.368 228.579L193.307 226.954L194.12 231.015L190.871 231.827L194.12 240.761L200.617 249.694L204.677 283.805L206.302 285.429L205.49 287.053L207.114 287.865L205.49 288.677V295.987L203.865 298.423L208.738 316.29L206.302 319.539L194.12 323.6H190.871L188.435 326.036L184.374 325.224L182.75 326.848L171.38 329.285L160.009 326.848L157.573 329.285L159.197 335.782L156.761 337.406L161.634 347.152L169.755 353.649L168.943 356.085L171.38 358.522H173.004L177.065 363.395L184.374 365.019L189.247 369.08H202.241L203.053 367.455L207.114 365.831L206.302 364.207L207.926 362.583L211.987 361.77L218.484 356.898L226.605 353.649L229.042 350.4L231.478 351.213L234.727 347.152L241.224 343.903L244.472 344.715L248.533 340.655L250.157 342.279L251.782 338.218L259.903 335.782V333.345L262.34 334.97L272.085 330.909V327.66L273.71 328.472V330.097L276.958 329.285L273.71 328.472V326.848L286.704 323.6L293.201 320.351H298.074L300.51 317.915L296.45 319.539L292.389 318.727L304.571 314.666V311.417L310.256 310.605L314.317 307.357L324.875 305.732L328.123 304.108L333.808 304.92L338.681 302.484L341.118 303.296L355.736 300.047L357.361 300.86L356.548 302.484H353.3L352.488 304.92L350.051 306.545L349.239 304.92L350.863 303.296L334.62 306.545L333.808 308.981L330.56 307.357L328.935 309.793L328.123 308.169L324.063 308.981L323.25 311.417L322.438 309.793L316.753 311.417L315.941 313.042L315.129 311.417L307.82 313.042L311.068 314.666L310.256 316.29L312.693 315.478L310.256 313.854L315.129 312.23L316.753 313.854L318.378 311.417L320.002 313.042L333.808 309.793L336.245 308.169L344.366 307.357L345.178 304.92L348.427 305.732L345.991 306.545L347.615 308.169L341.118 312.23L336.245 313.042L332.184 317.102L335.433 315.478L337.057 316.29L340.306 314.666L351.676 313.042H359.797L360.609 314.666L367.106 313.042H372.791L373.603 314.666L380.913 313.854L382.537 315.478L386.598 313.854L390.658 314.666L391.471 312.23L387.41 311.417V308.981L407.713 310.605L406.901 308.981L408.526 307.357H411.774L412.586 301.672L403.653 297.611H413.398V295.987H410.15L408.526 294.362L414.211 293.55V291.114L411.774 289.49V287.865L407.713 282.992H405.277L404.465 280.556L398.78 279.744L396.343 277.307L397.156 275.683H395.531L394.719 274.059L397.156 272.435L377.664 273.247L376.852 271.622H375.228L374.416 274.059H363.046L356.548 276.495L352.488 279.744L340.306 282.18L337.057 285.429L324.875 287.865L315.941 291.114L300.51 294.362L298.074 295.175L297.262 293.55L290.765 295.175L287.516 293.55L288.328 278.932L286.704 280.556L287.516 283.805L285.892 284.617L284.268 281.368L285.08 278.12L283.455 276.495L286.704 274.059L288.328 277.307L289.953 273.247V264.313L291.577 260.252L290.765 255.38L293.201 252.943L292.389 250.507L294.013 242.385L291.577 241.573L292.389 239.949L295.638 238.324L309.444 243.197L316.753 244.009L317.565 244.822L311.068 254.567L311.88 255.38L315.941 252.131L321.626 251.319L325.687 248.07L326.499 249.694L328.935 248.07L330.56 249.694L331.372 248.07L336.245 247.258L337.057 245.634L341.118 246.446L345.178 244.009L354.924 242.385L356.548 240.761L369.543 239.137L374.416 235.076L375.228 226.142L378.476 222.894H380.913V216.397L379.288 212.336L372.791 209.899L374.416 207.463H371.167L366.294 205.027V200.154H363.858L362.233 198.529L352.488 200.154L346.803 196.905H343.554L339.493 200.154L328.935 203.402L323.25 206.651L320.814 211.524L311.068 216.397L308.632 218.833L299.698 222.894L294.013 221.269L295.638 218.021L297.262 220.457L298.074 205.027L301.323 200.966L304.571 179.038L307.008 175.789H308.632L309.444 173.353V166.044L307.82 160.359L306.195 158.734V154.674L304.571 151.425L298.886 146.552L298.074 143.304L292.389 141.679L289.14 136.806L284.268 135.182L281.019 131.121L274.522 127.873ZM310.256 298.423L306.195 300.047L304.571 299.235L308.632 296.799L310.256 298.423ZM315.129 296.799L317.565 294.362L319.19 295.175L316.753 297.611L315.129 296.799ZM287.516 261.877L288.328 263.501L286.704 270.81L285.892 263.501L287.516 261.877Z" fill="#1A1A1A"/>
<path opacity="0.96" fill-rule="evenodd" clip-rule="evenodd" d="M696.837 471.41V473.034H698.461L700.085 474.658L696.837 471.41ZM661.915 455.167L668.412 460.852L671.66 461.664L674.097 464.101L679.782 464.913L683.03 468.161L684.655 466.537L687.903 467.349L693.588 471.41L695.212 469.786L688.715 464.913L685.467 464.101L683.03 460.04L686.279 458.416L687.091 460.852L690.34 463.288L692.776 462.476L693.588 460.852L699.273 464.913L700.897 463.288L700.085 460.04L698.461 460.852L696.837 459.228V456.791L694.4 455.167V453.543L687.091 446.233L687.903 443.797L691.964 447.046L690.34 444.609L691.152 443.797L694.4 444.609V443.797L691.152 442.985L690.34 440.548L686.279 441.361L683.842 438.112H683.03L682.218 440.548V444.609L687.091 449.482L686.279 450.294V454.355L685.467 455.167L686.279 457.603L685.467 458.416L677.345 453.543H674.909L672.472 451.106L665.975 451.918L668.412 455.167L667.6 455.979L661.915 455.167Z" fill="#A14B2C"/>
</svg>
