<svg xmlns="http://www.w3.org/2000/svg" width="720" height="716" fill="none" viewBox="0 0 720 716"><rect width="711" height="707" x="4.5" y="4.5" fill="#F0EBE0" rx="185.5"/><rect width="711" height="707" x="4.5" y="4.5" stroke="#E5E0D8" stroke-width="9" rx="185.5"/><path fill="#A14B2C" fill-rule="evenodd" d="M685.279 485.273v1.625h1.624l1.625 1.624zm-34.922-16.243 6.497 5.685 3.249.813 2.436 2.436 5.685.812 3.249 3.249 1.624-1.625 3.249.813 5.685 4.06 1.624-1.624-6.497-4.873-3.249-.812-2.436-4.061 3.248-1.624.812 2.436 3.249 2.437 2.436-.812.813-1.625 5.685 4.061 1.624-1.624-.812-3.249-1.625.812-1.624-1.624v-2.436l-2.436-1.625v-1.624l-7.31-7.309.813-2.437 4.06 3.249-1.624-2.437.812-.812 3.249.812v-.812l-3.249-.812-.812-2.436-4.061.812-2.436-3.249h-.812l-.812 2.437v4.06l4.872 4.873-.812.813v4.06l-.812.812.812 2.437-.812.812-8.121-4.873h-2.437l-2.436-2.436-6.497.812 2.436 3.248-.812.813z" clip-rule="evenodd" opacity=".96"/><path fill="#1E1E1E" d="M503.991 545c.661 0 .91.865.351 1.217l-32.998 20.741a1 1 0 0 0-.118.087c-4.264 3.551-41.568 14.828-22.449 8.455 19.097-6.366 44.395-22.823 54.833-30.379a.64.64 0 0 1 .381-.121m15.665 3.074c.44-.021.627.552.26.795l-21.839 14.46a1 1 0 0 0-.116.088c-2.883 2.455-27.878 10.92-15.048 6.186 12.846-4.741 29.617-16.217 36.506-21.443a.4.4 0 0 1 .237-.086M510.099 546c.363 0 .511.469.213.678l-17.326 12.171a1 1 0 0 0-.119.095c-2.355 2.107-21.739 8.655-11.749 4.933 10.01-3.729 23.266-13.364 28.748-17.797a.36.36 0 0 1 .233-.08m-211.322-81c-9.166 0 0 2.218 3.5 2.5 24.8 2 34 7.167 35.5 9.5l1-3.5 20.5 14h2.5l10.5 8.5 3 1 4 5.5 5 4 3.5 5.5c-1.166.333-2.9 1.3-.5 2.5s4.334 5.833 5 8l-.5 2 3.5 4.5v5.5l2 3-1 5.5-4.5 2.5 2.5 2-2 4c-.166 2-1.2 6.3-4 7.5s-4.5.167-5-.5l-10 5-4.5-1-5.5-2.5-3-1.5-3 1.5-7-1.5-6-6-2.5-5-3-1.5v-2.5l-7-1.5 1.5-1-6.5-1.5-1.5-2-14.5-2 5-1 3.5-2h-15.5l11-1.5 4.5-2-8.5-2.5-11 2.5.5-2h-4l4-2.5-2.5-2 2.5-2 3.5 1 2.5-2.5 2-1c3.167-1 9.4-3.7 9-6.5s-3.166-7.167-4.5-9l-5.5-5.5 1-2-6-4-2-3.5-4.5-2.5v-2l-2.5-1.5-3-2-1.5-2.5-2.5-2h5l-3.5-5-3-1.5V465l5.5 1v-2.5zm220.595 80.041c.245-.012.351.305.149.443l-11.926 8.158c-.043.029-.077.058-.117.091-1.691 1.416-15.195 6.125-8.209 3.468 7.027-2.673 16.197-9.155 19.966-12.11a.24.24 0 0 1 .137-.05M236.277 471.5l-33.283 29 19.837-13.203c.279-.186.446-.499.446-.833v-.929a1 1 0 0 1 .446-.832l2.302-1.535a1 1 0 0 1 .555-.168h2.913c.186 0 .368-.052.526-.149l15.849-9.789c.103-.064.212.076.122.158-7.847 7.175-21.646 19.94-19.713 18.78 2.5-1.5 15.5-9 13.5-7s-29.5 23-26 21.5 20.5-11.5 17.5-9-32 25.5-29 24.5 41.5-31 38.5-27c-2.4 3.2-23.333 21-33.5 29.5l10.687-8.258c.082-.063.194.025.152.12l-1.75 3.939a.1.1 0 0 0 .12.137l4.214-1.265c.108-.032.179.112.087.178l-9.814 7.009c-.552.395-.09 1.253.543 1.01.567-.218 1.043.476.635.927L204.277 537l17-15-17 16-4.941 5.931a1 1 0 0 1-.129.128l-5.853 4.877a1 1 0 0 0-.14.143l-1.637 2.046a1 1 0 0 1-.78.375h-.901a1 1 0 0 0-.895.553l-1.947 3.894c-.17.339-.516.553-.895.553h-4.401a1 1 0 0 1-.78-.375l-3.321-4.149a1 1 0 0 0-.976-.357l-4.113.822a1 1 0 0 1-.567-.051l-4.586-1.835a1 1 0 0 1-.254-.148l-4.785-3.828a1 1 0 0 1-.175-.181l-2.624-3.498a1 1 0 0 0-.8-.4h-.991a1 1 0 0 1-.808-.412l-3.6-4.95a1 1 0 0 1-.149-.301l-1.368-4.556a1 1 0 0 0-.306-.471l-2.929-2.51a1 1 0 0 1-.349-.76v-1.697a1 1 0 0 0-.211-.614l-3.078-3.958a1 1 0 0 1-.211-.614V517a1 1 0 0 1 1-1h.632a1 1 0 0 0 .832-1.555l-.509-.762a1 1 0 0 1 .124-1.263l.797-.796c.357-.357.39-.921.107-1.338-1.146-1.684-2.518-4.405-1.483-5.786.902-1.202 1.483-3.608 1.787-5.438.121-.723.937-1.128 1.566-.75l.141.084c.528.316 1.206.083 1.373-.51.309-1.103.633-2.712.633-4.386 0-2.354 1.763 4.879 2.932 8.303-1.144-3.498 2.114-4.248 4.568-1.303 4.75 5.7 5.96 4.38 7.9 4.018a1 1 0 0 0 .195-.054l6.232-2.398q.173-.066.359-.066h2.034c.183 0 .363-.05.52-.146l11.021-6.708a1 1 0 0 1 .52-.146h2.909c.202 0 .4-.061.566-.176l6.978-4.797a1 1 0 0 1 1.347.2l.855 1.067a1 1 0 0 0 1.323.216l55.741-36.01zm-104.5-76.5-2 5-2 4-2.374 4.273a1 1 0 0 0-.126.486v2.623a1 1 0 0 1-.552.894l-1.302.652a1 1 0 0 0-.261.187l-2.188 2.189a1 1 0 0 0-.264.465l-1.397 5.586a1 1 0 0 1-.112.273l-1.281 2.135a1 1 0 0 0-.143.514v1.959a1 1 0 0 1-.13.493L107.277 445l-.951 1.427q-.048.073-.084.154l-3.465 7.919 22.5-40.5-11 24.5 12.766-22.739c.561-1 2.091-.422 1.851.699l-.099.457q-.018.083-.049.162l-4.969 12.421-1.812 4.078c-.45 1.013.861 1.874 1.644 1.09.11-.11.193-.245.243-.392l8.925-26.776 12-30-18 51 2.823-5.646c.488-.977 1.97-.407 1.677.646l-4.5 12-2.749 5.956a.62.62 0 0 0 .284.812.62.62 0 0 1 .316.729l-1.326 4.42a1 1 0 0 1-.064.16l-3.355 6.712a1 1 0 0 0-.106.447v3.012c0 .165-.041.328-.119.474l-3.262 6.059a.335.335 0 1 0 .591.312l8.29-16.093c.427-.67 1.455-.153 1.172.589L122.277 460c-.288 1.151 1.357 1.701 1.82.608l.68-1.608-9.394 28.184a1 1 0 0 0 0 .632l.8 2.4a.82.82 0 0 1-.017.562l-.265.662a.574.574 0 0 1-1.085-.055c-.157-.551-.937-.556-1.102-.007l-.636 2.119a1 1 0 0 0 .716 1.257l.164.041c.473.118.792.561.755 1.047l-.399 5.173a1 1 0 0 1-.442.756l-3.83 2.552a1 1 0 0 0-.379.474l-2.319 6.03a1 1 0 0 0-.067.359V513c0-.117.087-.296.221-.501.449-.685 1.454-.358 1.579.451l.657 4.273c.028.181.005.366-.065.536l-2.315 5.558q-.077.183-.216.323l-2.568 2.567a1 1 0 0 0-.293.707v.672a1 1 0 0 1-.293.707l-1.785 1.785a1 1 0 0 0-.25.994l1.286 4.287q.042.14.042.287v3.027a1 1 0 0 1-.193.591l-5.007 6.828a1 1 0 0 1-.806.408h-.817a1 1 0 0 0-.928.629l-.577 1.44a1 1 0 0 1-.612.577l-.376.126a1 1 0 0 0-.684.949v1.161a1 1 0 0 1-.552.894l-3.141 1.571a1 1 0 0 1-.644.086l-4.183-.837a1 1 0 0 1-.698-.534l-.834-1.667a1 1 0 0 0-1.342-.448l-.586.293a1 1 0 0 1-1.002-.062l-.535-.356a1 1 0 0 0-1.002-.062l-3.009 1.504c-.295.147-.644.14-.933-.02l-3.813-2.119a1 1 0 0 1-.362-.344l-1.947-3.113a1 1 0 0 0-1.164-.419l-1.667.556c-.359.119-.755.026-1.023-.242l-1.662-1.663a1 1 0 0 1-.263-.949l.15-.604a1 1 0 0 0-.598-1.171l-.973-.389a1 1 0 0 1-.621-1.053l.323-2.588a1 1 0 0 0-.477-.981l-1.704-1.022a1 1 0 0 0-.515-.143h-1.223a1 1 0 0 1-1-1v-1.382a1 1 0 0 0-.552-.894l-1.448-.724-1.69-.676a1 1 0 0 1-.598-1.171l.1-.399a1 1 0 0 0-.496-1.122l-5.508-2.966a1 1 0 0 1-.445-.487l-1.331-3.106a1 1 0 0 1-.051-.151l-.91-3.64a1 1 0 0 1 .021-.558l.733-2.196a1 1 0 0 0-.181-.956l-4.378-5.254a1 1 0 0 1-.229-.73l.93-10.228c.021-.232.124-.45.29-.616l1.128-1.129q.116-.115.26-.187l2.595-1.298a1 1 0 0 0 .41-.38l2.77-4.614q.08-.136.115-.29L49.278 483l1.5-4.5 4-13-2.49 15.437a.802.802 0 0 0 1.36.694l.395-.396a1 1 0 0 0 .282-.565L57.277 460l3.5-15-2.5 20.5-2.457 16.709c-.028.19-.11.368-.237.513l-3.059 3.495a1 1 0 0 0-.247.659v.417a.707.707 0 0 0 1.207.5l.072-.071c.665-.666 1.79-.065 1.605.858l-.274 1.373a.834.834 0 0 0 1.635.326l.755-3.779 1.5-10.5c.188-1.221 2-1.159 2 .076v4.424l-.41 6.578a.706.706 0 1 0 1.41.044V473l1.25 12.499c.09.9 1.233 1.226 1.784.509 7.16-9.339 11.074-14.965 16.447-23.665a1.003 1.003 0 0 1 1.368-.334l.89.535c.435.26.999.149 1.308-.251 10.92-14.13 15.722-21.962 23.828-35.582.082-.137.196-.255.33-.339l3.699-2.311a1 1 0 0 0 .176-.141l.991-.99c.527-.528.154-1.43-.592-1.43a.837.837 0 0 1-.718-1.268l4.376-7.294a.92.92 0 0 1 1.546-.052l.135.228a.92.92 0 0 0 1.546-.052l.328-.547c.19-.317.19-.713 0-1.03l-.587-.978a1 1 0 0 1 .485-1.444l1.093-.436a1 1 0 0 0 .49-.422l4.677-7.95c.098-.167.242-.301.415-.388l1.324-.661c.261-.131.452-.369.523-.652l.865-3.461q.023-.093.063-.18L143.277 366zM530.16 539.687l-.812 1.625h-2.437l-1.624 3.248-4.873 2.436v-1.624l3.248-3.249 3.249-.811 1.624-2.437zm41.419-281.814h2.437l8.121 4.061 6.497 7.309 1.625 4.061 4.06 2.436 3.248 5.685-.811 7.309 2.436 4.061.812 4.873-4.061 8.934-6.497.812-10.557 8.934-17.056 26.8-1.624-.812-2.437 3.248-4.873 8.122-3.248.812.812 3.249-4.872 4.06v2.437l-2.437.812 1.624 1.624-6.497 8.121-1.624 5.686-5.685 8.121 2.436 1.624 14.619 1.625 2.436 2.436 20.304 3.249 4.873-.812 1.624 1.624 18.679 2.437 2.437-4.061v-7.31l1.624-4.873-.812-14.618-2.436-1.625-3.249.813 3.249-8.934 4.872-4.873h4.873l5.686-3.248 11.37 1.624 7.308 5.685 1.625 3.249h2.437l6.497 8.933v3.248l2.436 4.062v7.308l-1.625.813-2.436 5.684.812 1.625-1.624 4.061-.812 9.745-2.437 1.625 1.624.812-.811 5.685 3.248 3.248 13.806 8.122.813 1.624 2.436-.812 6.498 4.873.811 2.436 1.625-.812 9.745 8.934-3.248 1.625v4.872l4.873.812 1.624 1.624-4.06 1.625-2.437-3.249-1.625.813-.811 6.497 4.06 4.06v5.685l-1.624.812v1.624l-6.497-4.06h-2.436l-2.437-2.437h-5.686l-1.624 2.437 1.624 2.436h-1.624l-15.43-11.37-12.994-4.873h-3.249l-2.437 4.062-1.624-1.625-19.491 33.297-2.437.813-11.37 13.807h-3.248l.812 2.436-1.624-1.625-1.624 1.625.811 2.437-1.624-1.625-5.684 5.685.811 1.624 1.624-.812v1.625l-4.872 4.873v-4.062l-3.249 2.437-2.436-2.437-1.624 1.625v2.437l-2.437-.813-5.685 6.497-4.061 1.624-1.624-1.624-3.248 3.249 1.624 1.624-2.437 1.624v-6.497l2.437-2.436-1.624-.813-13.807 11.37h-1.624l-1.625 2.437h-3.248l-1.625 1.625 1.625 1.624-8.933 5.685h-2.437v-1.624l-1.624-.813-3.249 2.437-.813-1.624 2.437-2.437.812-3.248 2.437-.813 3.248 3.249 7.31-5.685-1.624-1.624-4.061 2.436-.812-2.436 23.551-23.553 12.183-14.618 4.06-7.31 2.437-.812 16.243-27.612 8.934-21.117v-2.436l-4.061-4.061-6.498-1.624 1.625-1.624-.812-.812-4.061 1.624 2.437-1.624-.813-.813h-2.436l-1.624 1.625v-2.436l-10.558-1.624-3.249-1.625-12.994-.812-3.248-2.436-21.116.811-4.061 4.062-3.249.811-4.873 10.558-12.994 19.492v4.061l-4.061 4.06-4.06 7.31-2.437 2.436h-2.436L466 486.085l-4.872.812-4.873 6.498-8.122 1.624-3.248 3.249-6.497.812-.813-1.625-2.436.813-.812-3.249-4.061-2.436-10.558-1.625-4.061-3.248v-2.437l-3.249-5.685v-3.248l-4.06-3.249 1.624-3.248h-3.248v-3.249l-1.624-.812-.813-9.746 1.624 2.437 1.625-.813-1.625-3.248v-11.37l2.437-8.122 3.249-5.685 14.618-15.43 4.873-3.249 18.68-8.934 4.872.813.812-.813-1.624-1.624 5.685.813 16.243-4.873 12.182-1.625 1.625-2.436 6.497-1.625 3.248-3.248 18.68-34.922v-2.436l16.243-35.735 2.436-7.309-.812-.813-18.68 11.37-12.182 9.746-5.685.812-4.061-2.436h-3.248l-6.497-4.873-3.249-.812-7.309-7.31v-1.624l-1.624-.811-4.873-8.122.812-5.685-2.437-9.746 1.625-.813v-3.248l8.122 1.624 5.684 4.061h8.121l5.686-1.624 18.679-8.121h2.436l12.183-6.497 8.121-6.497v-2.437l7.309-4.873h4.873l1.624-1.624 6.497-.812 1.624-2.437h4.874zm-38.171 280.189.813 1.625 4.06-3.249.813.813-8.122 7.309-.812-1.624 2.436-.813 1.625-2.436-2.437-.812-.812-2.437 3.249-1.624.81-.811zm7.31-5.684 2.436.811v2.437l-1.625.812-1.624-3.249-3.248 2.437-1.625-1.624 5.686-5.685zm-16.243-5.686-.813 2.437 1.625 3.249 2.437-3.249-1.625-1.624 2.436-1.624-.811-.813zm-229.847-.513c.193-.048.351.195.226.35l-1.485 1.857a.2.2 0 0 0-.011.236l.596.893a.2.2 0 0 1-.229.3l-2.417-.804a.2.2 0 0 0-.062-.011h-12.969c2.733 0 13.346-2.073 16.351-2.821m277.764-18.978.811.813 8.934-8.934v-3.249zm-111.264-82.026-11.37 5.684-9.746 8.122-6.497 12.182 1.624 3.249v4.061l5.685 4.06 4.872-.812 4.062-2.437 12.994-12.994 8.934-12.994 1.624.812 6.497-9.746-1.624-4.06zM184.444 396.5c.217 0 .427.07.6.2l1.467 1.1c.173.13.383.2.599.2h8.962q.205 0 .394-.081l3.123-1.338c.124-.053.258-.081.393-.081h8.625q.17 0 .33.056l9.518 3.331c.209.073.436.075.647.005l2.187-.729a1 1 0 0 1 .904.14l4.947 3.596a1 1 0 0 0 .3.15l4.539 1.361c.194.058.366.175.493.333l1.587 1.984c.141.177.218.397.218.624V408a1 1 0 0 0 1 1h.965c.335 0 .647.167.832.445l1.027 1.54a1 1 0 0 0 1.539.153l1.019-1.02a.978.978 0 0 1 1.568.259l.101.246a.978.978 0 0 0 1.568.259l.088-.089a1 1 0 0 0 .293-.707v-.672c0-.265.106-.519.293-.707l12.207-12.207-9.5 12.5-4.361 6.785a.9.9 0 0 0-.139.471c.001.794.978 1.174 1.514.587l8.396-9.197c.081-.087.22.013.162.117l-6.319 11.232c-.359.639.477 1.274.996.756.507-.506 1.332.088 1.012.728l-4.201 8.401a1 1 0 0 0-.086.251l-1.407 7.036a1 1 0 0 1-.323.557l-3.677 3.217a1 1 0 0 0-.122.128L237.177 442a1 1 0 0 0-.114 1.072l1.491 2.981c.14.281.14.613 0 .894l-1.683 3.365a1 1 0 0 1-.255.322l-5.361 4.468a1 1 0 0 1-1.046.145l-3.577-1.59a1 1 0 0 0-.723-.034l-5.408 1.803a1 1 0 0 0-.391.241l-1.04 1.04a1 1 0 0 1-.708.293h-6.085l-4.5.5c-.623.069-.826-.811-.236-1.022l2.665-.953a1 1 0 0 0 .137-.063l2.202-1.258a1 1 0 0 0 .155-1.628l-1.45-1.242a1 1 0 0 0-1.546.312l-.243.487a1 1 0 0 1-1.662.192l-.82-.984a1 1 0 0 0-1.476-.067l-2.976 2.976c-.392.393-1.011-.129-.691-.583l2.783-3.942a.87.87 0 0 0 .158-.5v-7.69a1 1 0 0 1 .446-.832l.438-.293a1 1 0 0 0 .403-1.119l-1.239-4.132a1 1 0 0 0-.144-.294L199.777 428l-3.378-4.825a1 1 0 0 0-.304-.284l-2.318-1.391-10.129-8.2a1 1 0 0 1-.371-.778v-1.507a1 1 0 0 0-.419-.814l-1.591-1.138a.882.882 0 0 1 .27-1.566.881.881 0 0 0 .276-1.561l-3.259-2.372a1 1 0 0 1-.244-1.363l1.38-2.071a1 1 0 0 0 .13-.28l.75-2.624a1 1 0 0 1 .961-.726zm144.315-40.002a.2.2 0 0 1 .037.007l3.448.985a.2.2 0 0 1 .062.03l3.447 2.462a.2.2 0 0 0 .054.027l2.97.991 3.43.979a.2.2 0 0 1 .111.082l3.9 5.849a.2.2 0 0 0 .167.09h3.796a.2.2 0 0 1 .157.076l5.397 6.869a.2.2 0 0 1 .042.124v1.731c0 .11.09.2.201.2h1.267q.031 0 .063.01c1.003.356 2.657 2.03 1.469 5.99-1.162 3.876 1.338 2.431 2.859 1.124.08-.069.2-.066.275.009l2.77 2.769a.2.2 0 0 1 .041.223l-1.894 4.261a.2.2 0 0 0 .029.21l2.346 2.814a.2.2 0 0 1 .033.198l-1.459 3.892-.976 2.93a.2.2 0 0 0 .004.137l.883 2.209a.2.2 0 0 1-.146.271l-4.712.942a.2.2 0 0 1-.102-.007l-2.877-.958a.2.2 0 0 0-.144.006l-7.895 3.454a.2.2 0 0 0-.061.042l-1.962 1.962-.024.022-3.462 2.471a.2.2 0 0 0-.044.043l-1.46 1.947a.2.2 0 0 1-.051.048l-8.283 5.359a.2.2 0 0 1-.287-.078l-.789-1.579a.202.202 0 0 0-.305-.067l-2.307 1.846c-6.333 6.333-14.1 14.5-22.5 16.5-7.924 1.887-4.902 2.884-6.214 3.41-.131.053-.264-.064-.244-.205l.382-2.672a.2.2 0 0 0-.329-.179l-3.595 3.146c-1.666 1.5-5.199 4.7-6 5.5-.687.687 1.041-2.274 2.386-4.494.116-.192-.125-.403-.3-.262L271.777 457l18.876-20.292c.16-.173-.052-.435-.249-.307-8.484 5.58-22.301 14.808-27.534 18.775-1.375 1.406-2.206 2.165-2.093 1.824.075-.223.837-.872 2.093-1.824 3.159-3.229 9.196-9.87 13.305-14.447.157-.175-.065-.427-.259-.294-3.382 2.33-8.44 5.867-9.139 6.565-.996.996 15.734-17.936 17-23 1.001-4 9.362-13.58 12-19 2-3.833 6-11.799 6-13 .001-1.501 7.5-15.5 6-17.5s-3-3-11.5-2c-6.739.793 1.355-1.624 6.368-2.965a.2.2 0 0 0 .145-.175l.474-5.207a.2.2 0 0 1 .166-.178l2.68-.448a.2.2 0 0 0 .167-.197v-2.17a.2.2 0 0 1 .158-.195l4.264-.947a.2.2 0 0 0 .123-.085l.891-1.336a.2.2 0 0 1 .182-.088l6.319.486a.2.2 0 0 0 .118-.028l4.89-2.934a.2.2 0 0 1 .121-.027zm-24.7 76.924a.665.665 0 1 0-1.022.837l.433.433a.604.604 0 0 0 .928-.76zm-21.653-.713a.92.92 0 1 0-.291 1.791h.291a.872.872 0 0 0 .276-1.699zm29.202-7.044a.57.57 0 0 0-.614.071l-4.883 4.069a.993.993 0 1 0 1.367 1.431l4.293-4.684a.565.565 0 0 0-.163-.887m101.603 3.57.812 1.624 7.309-7.308-.811-1.625zM314.777 419c-.242.001-.128.737.073 1.539.17.678 1.01.878 1.504.384.454-.454.329-1.22-.259-1.477-.552-.24-1.095-.446-1.318-.446m319.337-7.632.813 3.249 1.624-2.436-.813-2.437zm-570.923-3.667a.513.513 0 0 0 .9-.141c.171-.513.916-.446.993.089l.15 1.048a.77.77 0 0 1-.134.552l-2.28 3.192a.6.6 0 0 0-.068.126c-.225.6-1.12.391-1.057-.247l.082-.82.9-4.5zm7.065-8.201c.489 0 .823.494.641.948l-.572 1.433a1 1 0 0 0-.064.247l-.423 3.382a.783.783 0 0 1-1.56-.097v-1.731c0-.12.02-.24.063-.352l1.267-3.382a.69.69 0 0 1 .648-.448M36.363 321c.265 0 .52.106.707.293l.27.269c.268.268.664.362 1.023.243l.567-.189a1 1 0 0 1 .687.02l2.16.864 3.708 1.391c.19.071.398.083.594.034l5.404-1.352a1 1 0 0 1 .58.029l6.39 2.282c.21.075.44.077.651.007l2.447-.816a1 1 0 0 1 .463-.04l13.117 1.944q.144.021.28.083l8.278 3.896q.088.042.183.065l5.459 1.366c.283.07.52.261.651.522l1.019 2.036a1 1 0 0 0 .894.553h2.51c.24 0 .472.087.654.244l6.753 5.854a1 1 0 0 1 .316.998l-.167.669a1 1 0 0 0 .474 1.111l5.838 3.336a1 1 0 0 1 .504.868v1.506c0 .265.106.519.293.707l4.001 4.001a1 1 0 0 1 .269.49l.889 3.999c.031.143.031.291 0 .434l-.849 3.818a1 1 0 0 1-.528.678l-1.173.586c-.256.127-.554.14-.819.034l-.712-.284a1 1 0 0 0-1.371.928v2.361a1 1 0 0 0 .051.316l1.195 3.585a1 1 0 0 1-.434 1.174l-1.082.649a1 1 0 0 0-.413 1.229l.373.933a1 1 0 0 1-.399 1.219l-3.194 1.996a1 1 0 0 0-.178.141l-.579.58a1 1 0 0 1-.817.287l-8.045-.894a1 1 0 0 0-.817.287l-2.815 2.814a1 1 0 0 1-.831.285l-3.185-.398a1 1 0 0 0-.62.124l-2.98 1.703a1 1 0 0 1-.495.132h-.7a1 1 0 0 0-.831.445l-3.596 5.394c-.134.2-.495.017-.417-.211.538-1.576 1.21-3.851 1.31-5.628.142-2.537-5.574 9.365-7.428 13.284-.099.208-.415.108-.382-.12l.56-3.914.648-4.538c.016-.115-.144-.161-.19-.055l-3.681 8.281a1 1 0 0 1-.065.122c-1.72 2.75-2.6 4.568-2.739 6.364-.025.316-.745.531-.888.248a.263.263 0 0 0-.493.062l-.124.576c-.121.565-.957.455-.929-.122l.203-4.064a.8.8 0 0 1 .05-.24l1.124-2.997a.844.844 0 0 0-.586-1.116.846.846 0 0 1-.528-1.239l1.268-2.219a1 1 0 0 0 .116-.669l-1.322-7.494a.554.554 0 0 1 .545-.65.554.554 0 0 0 .51-.772l-1.07-2.496a1 1 0 0 1-.077-.484l.432-4.752a1 1 0 0 0-.323-.831l-4.804-4.367a1 1 0 0 1-.328-.74v-.523c0-.334-.167-.646-.445-.832l-.861-.574a1 1 0 0 1-.31-.331l-5.255-9.074a1 1 0 0 0-.35-.357l-2.012-1.207a1 1 0 0 1-.396-.443l-2.205-4.852a1 1 0 0 0-.539-.514l-1.892-.757a1 1 0 0 1-.397-.288l-2.338-2.806-4.707-4.707a1 1 0 0 1-.293-.707v-.608a.98.98 0 0 0-.977-.978.98.98 0 0 1-.813-.436l-2.95-4.424a1 1 0 0 1 .558-1.516l.905-.259a1 1 0 0 0 .573-1.492l-1.796-2.873-1.134-1.891a1 1 0 0 1 .088-1.155l1.572-1.885a.587.587 0 0 1 .919.024c.338.45 1.055.212 1.055-.352v-.491a.75.75 0 0 1 .75-.75zm491.361 67.628.811 1.624 2.437-3.248-.812-1.624zm2.436-4.061.812 1.624 2.436-3.248-.812-1.625zM245.277 138c1.41 0 4.477 1.553 6.327 2.606.398.227.901.166 1.225-.158l.35-.349a1 1 0 0 1 1.288-.107l5.695 4.069a1 1 0 0 0 1.206-.034l1.293-1.034a1 1 0 0 1 1.239-.009l3.607 2.805a1 1 0 0 0 .613.211h2.208c.286 0 .557.122.747.336l3.574 4.02q.129.143.3.23l3.617 1.809c.139.069.293.105.448.105h.543c.43 0 .812.275.948.684l1.126 3.376a1 1 0 0 0 .577.612l1.698.68c.238.095.504.095.742 0l1.758-.704c.238-.095.504-.095.742 0l1.581.633c.338.135.576.443.622.804l.342 2.739a.77.77 0 0 0 .765.676c.204 0 .4.081.545.226l7.5 7.5a1 1 0 0 1-.066 1.475l-1.38 1.15a1 1 0 0 0-.12 1.419l2.177 2.541a1 1 0 0 1 .218.433l.898 4.045c.031.139.091.27.176.384l1.131 1.508a1 1 0 0 1 .193.716l-.849 7.22a1 1 0 0 1-.993.883h-1.951a1 1 0 0 0-.919.606l-1.189 2.774a1 1 0 0 0-.07.249l-2.926 19.992a1 1 0 0 1-.35.624l-2.391 1.993a1 1 0 0 0-.356.669l-1.796 17.966a.997.997 0 0 0 1.362 1.025c9.782-3.896 14.799-6.594 21.72-11.71a1 1 0 0 0 .355-.487l.786-2.359a1 1 0 0 1 .421-.532c3.926-2.436 6.667-3.954 17.193-7.81l6.646-2.658a1 1 0 0 1 1.265.481l.805 1.608a1 1 0 0 0 .922.551c6.906-.194 8.833-.501 12.888-.932a1 1 0 0 1 .811.287l.37.37a1 1 0 0 0 .707.293h1.433a1 1 0 0 1 .99 1.142l-.28 1.962a1 1 0 0 0 .176.722l2.022 2.831c.157.219.396.366.662.407l4.133.636a1 1 0 0 1 .555 1.696l-.133.132c-.593.593-.237 1.612.592 1.738 2.269.343 3.605.755 5.152 1.398.454.189.688.685.589 1.166-.303 1.473-.238 2.508.195 4.17.588 2.463.711 3.84-.219 5.53a.94.94 0 0 1-.828.47h-.953a1 1 0 0 0-1 1v.219a1 1 0 0 1-.757.97l-.034.008a1 1 0 0 0-.651 1.418l.337.674c.069.139.105.292.105.447v1.85a1 1 0 0 1-.293.707l-.455.455a1 1 0 0 0-.289.607c-.29 2.659-.629 3.276-1.202 3.545a1.3 1.3 0 0 0-.444.31l-3.122 3.568c-.127.145-.293.25-.478.303l-2.983.853a1 1 0 0 1-.471.018l-2.13-.426a1 1 0 0 0-.267-.016l-6.494.464a1 1 0 0 0-.635.29l-1.997 1.997a1 1 0 0 1-.576.284l-7.011.934a1 1 0 0 0-.291.085l-6.88 3.211a1 1 0 0 1-.938-.048l-1.629-.978a1 1 0 0 0-.869-.078c-2.542.949-4.338 1.543-6.04 3.355-.409.436-1.276.138-1.202-.455.065-.519-.551-.875-.934-.517l-6.262 5.846a.56.56 0 0 1-.249.135c-.547.137-.937-.523-.552-.935l5.693-6.1c-2.346 2.241-3.752 3.346-6.734 3.49a.78.78 0 0 0-.468.183l-2.942 2.522c-.397.34-.939-.194-.605-.595.312-.374-.127-.866-.529-.592-5.471 3.732-12.425 9.112-9.722 6.992 2.658-2.084 6.696-9.347 9.79-13.188.566-.702.123-1.955-.774-2.055-2.582-.29-6.64-.851-9.516-1.757-3.059-.963-7.274-3.101-8.59-3.785a1 1 0 0 0-.841-.042l-1.833.733a1 1 0 0 0-.398.288l-2.244 2.694a1 1 0 0 0-.151.246l-1.039 2.425a1 1 0 0 0 .548 1.322l.177.07a1 1 0 0 0 1.371-.928v-1.32c0-.133.032-.265.091-.385.42-.838 1.687-.494 1.625.442l-.69 10.365c-.016.242-.12.469-.291.641l-.505.505a1 1 0 0 0-.28.55l-1.45 9.179-1.913 9.085a.521.521 0 0 1-1.031-.158l1.908-19.558a.95.95 0 0 0-.183-.67c-1.145-1.504-1.75-1.224-2.618.054a.96.96 0 0 0-.163.542v16.469c0 .155.036.308.106.447l.521 1.043a1 1 0 0 1-.295 1.247l-1.199.899a.8.8 0 0 0-.215.244l-1.041 1.821c-.197.345.22.712.537.474a.366.366 0 0 1 .586.292v2.087c0 .12-.021.24-.063.352l-1.35 3.6a1 1 0 0 0-.056.474l.136 1.089c.115.919 1.311 1.202 1.825.431l.34-.512a1 1 0 0 0 .168-.555V294.5a1 1 0 0 1 1-1h.853a1 1 0 0 1 .99 1.137l-1.724 12.504a1 1 0 0 0 .716 1.097l2.378.68c.188.053.387.051.572-.007l4.872-1.522c.857-.268 1.543.737.982 1.438a.95.95 0 0 1-.34.265c-1.464.681-3.122 1.79.701 1.408 3.976-.398 29.03-8.403 41.28-12.428a1 1 0 0 0 .388-.24l1.539-1.539a1 1 0 0 1 .707-.293h3.887c.131 0 .262-.026.383-.076l20.133-8.348q.183-.076.383-.076h8.3l20.538-.913a.929.929 0 0 1 .785 1.484.93.93 0 0 0-.112.922l1.162 2.71c.083.193.225.355.405.463l1.985 1.191a1 1 0 0 0 .515.143h.935c.188 0 .372.053.531.152l3.513 2.196c.159.099.343.152.53.152h3.77c.698 0 1.182.698.937 1.352l-.754 2.009a1 1 0 0 0 .267 1.095l4.493 4.044 2.402 1.681c.8.56.403 1.819-.575 1.819h-6.698a.814.814 0 0 0-.188 1.604l.436.105c1.173.279.941 2.01-.263 1.972l-.419-.013c-1.101-.035-1.442 1.474-.433 1.915l3.117 1.364q.121.053.224.135l1.274 1.02a1 1 0 0 1-.11 1.638l-.928.557c-.217.13-.377.339-.447.583l-.739 2.586a1 1 0 0 1-.687.686l-2.004.574a1 1 0 0 0-.687 1.236l.258.899a1 1 0 0 1-1.191 1.248l-6.728-1.583a1 1 0 0 0-.23-.026H377.51c-.227 0-.279.318-.064.39l3.993 1.331c.479.159.764.65.665 1.144l-.166.831a1 1 0 0 1-.98.804H371.9a1 1 0 0 1-.242-.03l-1.332-.332a1 1 0 0 0-.949.262l-.712.712a1 1 0 0 1-.924.269l-3.679-.818a1 1 0 0 1-.491-.269l-1.001-1.001a1 1 0 0 0-.707-.293H358.4a1 1 0 0 0-.242.03l-7.825 1.956c-.577.145-.978-.563-.558-.984l.295-.295a.414.414 0 0 0-.293-.707h-4.901a1 1 0 0 0-.195.02l-7.404 1.48-8.91.99q-.09.01-.177.036l-4.913 1.474-2.178.953c-.544.238-.951-.528-.45-.846.491-.31.114-1.062-.428-.854l-1.944.747c-3.5.833-10.8 2.5-12 2.5-1.5 0-9 2-9.5 2-.374 0-3.404 1.751-5.158 2.796a1 1 0 0 1-.731.117l-3.406-.757c-.197-.044-.212-.32-.02-.385l3.815-1.271 6-1.5 17-5 11-2.5 6.292-.968c.137-.021.268-.07.385-.144l4.687-2.983a.74.74 0 0 0 .217-1.033.74.74 0 0 1 .436-1.126l2.741-.685a.7.7 0 0 0 .392-.26c.413-.552-.131-1.307-.784-1.089l-2.366.788-2.203.44a1 1 0 0 0-.511.274l-1.072 1.072a1 1 0 0 1-.511.274l-4.703.94-9.354.984a1 1 0 0 0-.28.073l-5.785 2.409a1 1 0 0 1-.167.054l-4.306.957a1 1 0 0 1-.217.023h-.256c-.848 0-1.31-.989-.767-1.641l.999-1.198a1 1 0 0 1 .321-.255l5.662-2.831a1 1 0 0 1 .317-.096L333.277 319l12.736-2.83a.977.977 0 0 0-.423-1.906L337.777 316l-7.927 2.478a1 1 0 0 1-.147.034l-6.226.958a1 1 0 0 1-.395-.019l-1.573-.393a1 1 0 0 0-.464-.005l-10.768 2.447-6.905 1.479a1 1 0 0 0-.184.059l-2.984 1.279a1 1 0 0 1-.842-.024l-.101-.051a1 1 0 0 0-.95.03l-4.842 2.825a.753.753 0 0 0-.247 1.069.756.756 0 0 1-.4 1.138l-9.847 3.134a.85.85 0 0 0-.344.208c-.623.623-.005 1.667.841 1.419l17.213-5.038a.7.7 0 0 1 .189-.027c.769 0 .935 1.084.2 1.313l-19.797 6.187-10 2.5-4.642 1.769c-1.063.405-.732 1.987.404 1.933l2.555-.122c.236-.011.293.325.065.392L259.277 346l-15.416 5.968a1 1 0 0 0-.161.079l-8.923 5.453-10.936 5.468a1 1 0 0 0-.122.072l-6.442 4.46-17.34 10.114a.94.94 0 0 0-.417 1.112.94.94 0 0 1-.473 1.139l-3.27 1.635-5.169 2.154a.6.6 0 0 1-.831-.554.6.6 0 0 0-.599-.6h-7.642a1 1 0 0 1-.485-.126L176.777 380c-.666-.5-2.2-1.5-3-1.5-.761 0-3.094-.906-4.323-1.425a1 1 0 0 1-.312-.211l-3.809-3.808a1 1 0 0 0-.119-.102l-4.585-3.335a.9.9 0 0 1-.108-1.363.9.9 0 0 0-.117-1.372l-7.358-5.195a1 1 0 0 1-.372-.501l-3.122-9.365a1 1 0 0 1 .501-1.211l.33-.165a1 1 0 0 0 .447-1.342l-1.447-2.894a1 1 0 0 1-.106-.447V344a1 1 0 0 1 1-1h.154a1 1 0 0 0 .986-.836l.159-.955a1 1 0 0 1 1.345-.769l5.183 1.994q.173.066.359.066h3.728a1 1 0 0 0 .171-.015l11.232-1.953a1 1 0 0 0 .343-.128l1.985-1.191a1 1 0 0 1 .757-.112l3.316.829c.185.046.378.038.559-.022l11.581-3.86q.142-.048.264-.135l6.509-4.649a1 1 0 0 0 .414-.715l.434-4.331a1 1 0 0 0-.05-.425l-4.6-13.338a1 1 0 0 1 .63-1.274l1.162-.388c.496-.165.781-.685.655-1.191l-1.489-5.953a.607.607 0 0 1 .813-.71.605.605 0 0 0 .776-.812l-1.808-3.979a1 1 0 0 1-.084-.31l-3.455-33.071a1 1 0 0 0-.187-.484l-7.65-10.52a1 1 0 0 1-.192-.588v-2.372a1 1 0 0 0-.168-.555l-1.703-2.555a.767.767 0 0 1 .639-1.193h1.951a1 1 0 0 0 .971-1.242l-.285-1.141a1 1 0 0 1 1.213-1.213l1.804.451a.465.465 0 0 0 .578-.452.47.47 0 0 1 .4-.46l2.722-.389c.244-.035.492.022.697.158l3.985 2.657a1 1 0 0 0 .431.16l3.765.471h3.354q.146 0 .287.042l9.336 2.801c.326.098.58.356.674.683l.488 1.709a.608.608 0 0 0 1.091.17.61.61 0 0 1 .724-.23l5.606 2.156a1 1 0 0 1 .59.616l.233.702c.076.227.23.419.435.541l4.197 2.519a1 1 0 0 1 .485.857v2.109c0 .211.067.417.192.588l3.657 5.029c.099.137.163.296.184.464l.424 3.403c.028.221.129.426.286.583l1.464 1.465a1 1 0 0 1 .293.707v5.427a1 1 0 0 1-.606.919l-2.332 1a1 1 0 0 0-.604.849l-2.452 35.303a1 1 0 0 1-.027.173L227.777 322c.167-1 .2-3.3-1-4.5l-.877-.877c-.187-.187-.123.026-.123.291v6.198c0 .683.669 1.165 1.317.95l.183-.062 13.338-4.446a.7.7 0 0 1 .331-.026c.714.12.784 1.118.094 1.336l-6.242 1.972a.745.745 0 0 0 .405 1.433l10.699-2.675c.242-.061.452-.208.59-.415l1.69-2.534q.095-.145.137-.313l1.395-5.578c.041-.166.04-.341-.005-.506L248.277 307l-.987-6.911a1 1 0 0 0-.041-.175l-.83-2.49c-.09-.27-.061-.566.08-.813l1.684-2.945a1 1 0 0 0 .122-.355l.472-3.311.99-7.916a.6.6 0 0 0-.003-.168l-.353-2.112c-.074-.447.561-.618.72-.194.078.208.32.304.518.204l1.181-.59a1 1 0 0 1 1.447.894v5.981a.75.75 0 1 0 1.5 0v-16.581a.517.517 0 0 0-1.034-.038l-.399 5.591a1 1 0 0 1-.997.929h-.07a1 1 0 0 1-1-1v-6.575a.965.965 0 0 0-1.323-.896.963.963 0 0 1-1.316-.789l-.199-1.779a.857.857 0 0 1 1.189-.882c.733.314 1.46-.456 1.103-1.17l-.421-.846a1 1 0 0 1-.055-.13l-1.386-4.157a1 1 0 0 1-.021-.558l.929-3.718.416-1.248c.055-.165.067-.342.033-.513l-.449-2.239-1.192-5.562a1 1 0 0 1 1.143-1.196l.087.014a1 1 0 0 0 1.141-1.203l-.534-2.402a.83.83 0 0 0-.813-.651.833.833 0 0 1-.832-.832v-26.064q0-.104-.021-.206l-1.934-9.186a1 1 0 0 1 .002-.423l.814-3.659a1 1 0 0 0-.377-1.017l-1.024-.767a1 1 0 0 1-.392-.917l.909-7.73a1 1 0 0 0-.031-.391l-.918-3.214a1 1 0 0 1-.035-.192l-.477-5.71a1 1 0 0 0-.102-.364l-.785-1.569a1 1 0 0 1-.1-.547l.936-9.356a1 1 0 0 0-.163-.654l-1.634-2.45a1 1 0 0 1-.168-.555v-.283a1 1 0 0 0-.293-.707l-4.414-4.414a1 1 0 0 1-.293-.707V152l-.434-5.217a1 1 0 0 1 .679-1.031l3.176-1.059c.356-.118.613-.426.681-.795.418-2.276 1.436-5.898 2.898-5.898M73.929 205.124 83.777 207c1.84.469 2.767.555 3.714.14a1.14 1.14 0 0 1 .603-.101c4.959.624 8.698 1.537 19.683 5.961 9.151 3.379 16.306 5.183 25 11.5 5.754 4.18 10.498 7.967 13.428 12.554.319.499.1 1.152-.434 1.407-2.304 1.099-2.793 1.729-1.494 2.539l3.859 2.572a.77.77 0 0 0 1.069-.214.77.77 0 0 1 1.233-.065l1.783 2.14q.056.067.1.143l1.503 2.632a1.03 1.03 0 0 1-.287 1.327c-1.37 1.037-1.708 1.68-.26 2.465l1.667.834a1 1 0 0 1 .477.51l1.966 4.719a1 1 0 0 1-.551 1.314l-.28.112a1 1 0 0 0-.398 1.569l1.276 1.529c.214.258.285.606.189.928l-.969 3.23a1 1 0 0 1-1.488.561l-1.705-1.066a.774.774 0 0 0-1.184.656.77.77 0 0 1-.586.75l-2.205.551a1 1 0 0 0-.651 1.418l1.297 2.594c.094.189.126.403.092.611l-.34 2.04a.766.766 0 0 1-.755.64.765.765 0 0 0-.656 1.159l.467.779a1 1 0 0 1-.044 1.094c-.903 1.253-2.273 3.122-2.619 3.468-.313.313-1.464.646-2.348.856a1.04 1.04 0 0 0-.783.797l-.172.867a1 1 0 0 1-1.177.784l-1.389-.278a1 1 0 0 1-.251-.086l-3.589-1.794a1.03 1.03 0 0 0-.612-.096c-1.091.156-2.956.311-3.679-.05-.515-.257-1.471-.253-2.31-.172-.623.06-.976.708-.743 1.288l.263.658a.85.85 0 0 1-1.032 1.129l-9.537-2.861a1 1 0 0 0-.287-.042h-4.236c-.379 0-.717-.22-.927-.534-1.393-2.081-3.831-1.747-8.915-.058a1.07 1.07 0 0 1-.557.028c-1.854-.404-2.922-.183-4.719.564l-6.164 3.467c-.323.182-.649-.234-.395-.504.549-.586-.248-1.45-.876-.95L79.277 295l10.193-10.617c.17-.178-.07-.447-.266-.297l-13.336 10.198c-.191.147-.434-.109-.276-.291 3.687-4.236 9.185-10.639 9.185-10.993 0-.266-.296-.843-.591-1.347a1.06 1.06 0 0 1 .101-1.233c4.31-4.949 6.27-8.37 8.913-14.734.05-.122.077-.254.077-.385v-4.961c0-.221-.072-.435-.207-.61l-4.586-5.96a1 1 0 0 1-.207-.61v-2.223a1 1 0 0 0-.319-.734l-6.361-5.906a1 1 0 0 1-.32-.734v-.609c0-.288-.124-.563-.341-.753l-3.159-2.763a1 1 0 0 1-.29-1.069l.057-.169a1 1 0 0 0-.367-1.13l-2.588-1.847a1 1 0 0 1-.395-.597l-.853-3.842a1 1 0 0 0-.27-.49l-2.284-2.284a1 1 0 0 1-.187-1.155l.395-.792a1 1 0 0 0-.104-1.06l-2.815-3.619a1 1 0 0 1-.18-.857l.278-1.115a1 1 0 0 0-.122-.772l-1.885-3.017a1 1 0 0 1 .089-1.181l2.233-2.606a.96.96 0 0 1 .73-.336.963.963 0 0 0 .862-1.393l-.246-.492a1 1 0 0 1 .651-1.418l.416-.103c.242-.061.452-.208.59-.415l1.417-2.127a1 1 0 0 1 1.02-.428"/></svg>